<mxfile host="app.diagrams.net" agent="Mozilla/5.0 (Windows NT 10.0; Win64; x64) AppleWebKit/537.36 (KHTML, like Gecko) Chrome/134.0.0.0 Safari/537.36" version="26.2.2">
  <diagram name="Aplication_Migration" id="EEjMNfYxGbg6GrDTq1pO">
    <mxGraphModel dx="2488" dy="2428" grid="0" gridSize="10" guides="1" tooltips="1" connect="1" arrows="1" fold="1" page="0" pageScale="1" pageWidth="827" pageHeight="1169" math="0" shadow="0">
      <root>
        <mxCell id="0" />
        <mxCell id="1" parent="0" />
        <mxCell id="XyRzEMEgcjJhNRbVPjNN-1" value="Generic group" style="fillColor=light-dark(#EFF0F3,#FFFFFF);strokeColor=default;dashed=0;verticalAlign=top;fontStyle=0;fontColor=light-dark(#FFFFFF,#FFFFFF);whiteSpace=wrap;html=1;rounded=0;" vertex="1" parent="1">
          <mxGeometry x="-50" y="-1090" width="900" height="980" as="geometry" />
        </mxCell>
        <mxCell id="XyRzEMEgcjJhNRbVPjNN-2" value="AWS Cloud" style="sketch=0;outlineConnect=0;gradientColor=none;html=1;whiteSpace=wrap;fontSize=12;fontStyle=0;shape=mxgraph.aws4.group;grIcon=mxgraph.aws4.group_aws_cloud;strokeColor=#AAB7B8;fillColor=none;verticalAlign=top;align=left;spacingLeft=30;fontColor=#AAB7B8;dashed=0;perimeterSpacing=0;strokeWidth=1;" vertex="1" parent="1">
          <mxGeometry x="270" y="-1020" width="524" height="880" as="geometry" />
        </mxCell>
        <mxCell id="XyRzEMEgcjJhNRbVPjNN-3" value="Region" style="points=[[0,0],[0.25,0],[0.5,0],[0.75,0],[1,0],[1,0.25],[1,0.5],[1,0.75],[1,1],[0.75,1],[0.5,1],[0.25,1],[0,1],[0,0.75],[0,0.5],[0,0.25]];outlineConnect=0;gradientColor=none;html=1;whiteSpace=wrap;fontSize=9;fontStyle=0;container=1;pointerEvents=0;collapsible=0;recursiveResize=0;shape=mxgraph.aws4.group;grIcon=mxgraph.aws4.group_region;strokeColor=#00A4A6;fillColor=none;verticalAlign=top;align=left;spacingLeft=30;fontColor=#147EBA;strokeWidth=0;" vertex="1" parent="1">
          <mxGeometry x="275.5" y="-959.5" width="513" height="810" as="geometry" />
        </mxCell>
        <mxCell id="XyRzEMEgcjJhNRbVPjNN-4" value="" style="rounded=0;whiteSpace=wrap;html=1;strokeColor=#B3B3B3;fillColor=none;fontStyle=0" vertex="1" parent="XyRzEMEgcjJhNRbVPjNN-3">
          <mxGeometry x="20" y="30" width="440" height="100" as="geometry" />
        </mxCell>
        <mxCell id="XyRzEMEgcjJhNRbVPjNN-5" value="VPC" style="sketch=0;outlineConnect=0;gradientColor=none;html=1;whiteSpace=wrap;fontSize=12;fontStyle=0;shape=mxgraph.aws4.group;grIcon=mxgraph.aws4.group_vpc;strokeColor=#00CC00;fillColor=none;verticalAlign=top;align=left;spacingLeft=30;fontColor=#879196;dashed=0;" vertex="1" parent="XyRzEMEgcjJhNRbVPjNN-3">
          <mxGeometry x="12.5" y="160" width="480" height="640" as="geometry" />
        </mxCell>
        <mxCell id="XyRzEMEgcjJhNRbVPjNN-6" value="AWS Regional Service API Endpoint Acess" style="text;strokeColor=none;fillColor=none;html=1;fontSize=10;fontStyle=1;verticalAlign=middle;align=center;fontColor=light-dark(#000000,#000000);" vertex="1" parent="XyRzEMEgcjJhNRbVPjNN-3">
          <mxGeometry x="117" y="40" width="246" height="20" as="geometry" />
        </mxCell>
        <mxCell id="XyRzEMEgcjJhNRbVPjNN-7" value="&lt;font style=&quot;font-size: 9px;&quot;&gt;MGN&lt;/font&gt;" style="text;strokeColor=none;fillColor=none;html=1;fontSize=12;fontStyle=0;verticalAlign=middle;align=center;fontColor=light-dark(#000000,#000000);" vertex="1" parent="XyRzEMEgcjJhNRbVPjNN-3">
          <mxGeometry x="60" y="50" width="40" height="40" as="geometry" />
        </mxCell>
        <mxCell id="XyRzEMEgcjJhNRbVPjNN-8" value="" style="sketch=0;points=[[0,0,0],[0.25,0,0],[0.5,0,0],[0.75,0,0],[1,0,0],[0,1,0],[0.25,1,0],[0.5,1,0],[0.75,1,0],[1,1,0],[0,0.25,0],[0,0.5,0],[0,0.75,0],[1,0.25,0],[1,0.5,0],[1,0.75,0]];outlineConnect=0;fontColor=#232F3E;fillColor=#01A88D;strokeColor=#ffffff;dashed=0;verticalLabelPosition=bottom;verticalAlign=top;align=center;html=1;fontSize=12;fontStyle=0;aspect=fixed;shape=mxgraph.aws4.resourceIcon;resIcon=mxgraph.aws4.cloudendure_migration;" vertex="1" parent="XyRzEMEgcjJhNRbVPjNN-3">
          <mxGeometry x="65" y="80" width="30" height="30" as="geometry" />
        </mxCell>
        <mxCell id="XyRzEMEgcjJhNRbVPjNN-9" value="&lt;font style=&quot;font-size: 9px;&quot;&gt;EC2&lt;/font&gt;" style="text;strokeColor=none;fillColor=none;html=1;fontSize=12;fontStyle=0;verticalAlign=middle;align=center;fontColor=light-dark(#000000,#000000);" vertex="1" parent="XyRzEMEgcjJhNRbVPjNN-3">
          <mxGeometry x="180" y="50" width="40" height="40" as="geometry" />
        </mxCell>
        <mxCell id="XyRzEMEgcjJhNRbVPjNN-10" value="" style="sketch=0;points=[[0,0,0],[0.25,0,0],[0.5,0,0],[0.75,0,0],[1,0,0],[0,1,0],[0.25,1,0],[0.5,1,0],[0.75,1,0],[1,1,0],[0,0.25,0],[0,0.5,0],[0,0.75,0],[1,0.25,0],[1,0.5,0],[1,0.75,0]];outlineConnect=0;fontColor=#232F3E;fillColor=#ED7100;strokeColor=#ffffff;dashed=0;verticalLabelPosition=bottom;verticalAlign=top;align=center;html=1;fontSize=12;fontStyle=0;aspect=fixed;shape=mxgraph.aws4.resourceIcon;resIcon=mxgraph.aws4.ec2;" vertex="1" parent="XyRzEMEgcjJhNRbVPjNN-3">
          <mxGeometry x="185" y="80" width="30" height="30" as="geometry" />
        </mxCell>
        <mxCell id="XyRzEMEgcjJhNRbVPjNN-11" value="&lt;font style=&quot;font-size: 9px;&quot;&gt;S3&lt;/font&gt;" style="text;strokeColor=none;fillColor=none;html=1;fontSize=12;fontStyle=0;verticalAlign=middle;align=center;fontColor=light-dark(#000000,#000000);" vertex="1" parent="XyRzEMEgcjJhNRbVPjNN-3">
          <mxGeometry x="305" y="60" width="30" height="20" as="geometry" />
        </mxCell>
        <mxCell id="XyRzEMEgcjJhNRbVPjNN-12" value="" style="sketch=0;points=[[0,0,0],[0.25,0,0],[0.5,0,0],[0.75,0,0],[1,0,0],[0,1,0],[0.25,1,0],[0.5,1,0],[0.75,1,0],[1,1,0],[0,0.25,0],[0,0.5,0],[0,0.75,0],[1,0.25,0],[1,0.5,0],[1,0.75,0]];outlineConnect=0;fontColor=#232F3E;fillColor=#7AA116;strokeColor=#ffffff;dashed=0;verticalLabelPosition=bottom;verticalAlign=top;align=center;html=1;fontSize=12;fontStyle=0;aspect=fixed;shape=mxgraph.aws4.resourceIcon;resIcon=mxgraph.aws4.s3;" vertex="1" parent="XyRzEMEgcjJhNRbVPjNN-3">
          <mxGeometry x="305" y="80" width="30" height="30" as="geometry" />
        </mxCell>
        <mxCell id="XyRzEMEgcjJhNRbVPjNN-13" value="&lt;font size=&quot;1&quot;&gt;System&lt;br&gt;Manager&lt;/font&gt;" style="text;strokeColor=none;fillColor=none;html=1;fontSize=12;fontStyle=0;verticalAlign=middle;align=center;fontColor=light-dark(#000000,#000000);" vertex="1" parent="XyRzEMEgcjJhNRbVPjNN-3">
          <mxGeometry x="395" y="40" width="40" height="40" as="geometry" />
        </mxCell>
        <mxCell id="XyRzEMEgcjJhNRbVPjNN-14" value="" style="sketch=0;points=[[0,0,0],[0.25,0,0],[0.5,0,0],[0.75,0,0],[1,0,0],[0,1,0],[0.25,1,0],[0.5,1,0],[0.75,1,0],[1,1,0],[0,0.25,0],[0,0.5,0],[0,0.75,0],[1,0.25,0],[1,0.5,0],[1,0.75,0]];points=[[0,0,0],[0.25,0,0],[0.5,0,0],[0.75,0,0],[1,0,0],[0,1,0],[0.25,1,0],[0.5,1,0],[0.75,1,0],[1,1,0],[0,0.25,0],[0,0.5,0],[0,0.75,0],[1,0.25,0],[1,0.5,0],[1,0.75,0]];outlineConnect=0;fontColor=#232F3E;fillColor=#E7157B;strokeColor=#ffffff;dashed=0;verticalLabelPosition=bottom;verticalAlign=top;align=center;html=1;fontSize=12;fontStyle=0;aspect=fixed;shape=mxgraph.aws4.resourceIcon;resIcon=mxgraph.aws4.systems_manager;" vertex="1" parent="XyRzEMEgcjJhNRbVPjNN-3">
          <mxGeometry x="400.5" y="80" width="30" height="30" as="geometry" />
        </mxCell>
        <mxCell id="XyRzEMEgcjJhNRbVPjNN-15" value="Migrated Resources&lt;div&gt;&lt;br&gt;&lt;/div&gt;" style="points=[[0,0],[0.25,0],[0.5,0],[0.75,0],[1,0],[1,0.25],[1,0.5],[1,0.75],[1,1],[0.75,1],[0.5,1],[0.25,1],[0,1],[0,0.75],[0,0.5],[0,0.25]];outlineConnect=0;gradientColor=none;html=1;whiteSpace=wrap;fontSize=12;fontStyle=0;container=1;pointerEvents=0;collapsible=0;recursiveResize=0;shape=mxgraph.aws4.group;grIcon=mxgraph.aws4.group_security_group;grStroke=0;strokeColor=#00A4A6;fillColor=light-dark(#FFFFFF,#E6E6E6);verticalAlign=top;align=left;spacingLeft=30;fontColor=#147EBA;dashed=0;" vertex="1" parent="XyRzEMEgcjJhNRbVPjNN-3">
          <mxGeometry x="260" y="200" width="220" height="510" as="geometry" />
        </mxCell>
        <mxCell id="XyRzEMEgcjJhNRbVPjNN-16" value="" style="sketch=0;outlineConnect=0;fontColor=#232F3E;gradientColor=none;fillColor=#ED7100;strokeColor=none;dashed=0;verticalLabelPosition=bottom;verticalAlign=top;align=center;html=1;fontSize=12;fontStyle=0;aspect=fixed;pointerEvents=1;shape=mxgraph.aws4.instance2;" vertex="1" parent="XyRzEMEgcjJhNRbVPjNN-15">
          <mxGeometry x="140" y="60" width="50" height="50" as="geometry" />
        </mxCell>
        <mxCell id="XyRzEMEgcjJhNRbVPjNN-17" value="Security group" style="fillColor=none;strokeColor=#DD3522;verticalAlign=top;fontStyle=0;fontColor=#DD3522;whiteSpace=wrap;html=1;fontSize=9;" vertex="1" parent="XyRzEMEgcjJhNRbVPjNN-15">
          <mxGeometry x="117.50000000000001" y="41.25" width="95" height="87.5" as="geometry" />
        </mxCell>
        <mxCell id="XyRzEMEgcjJhNRbVPjNN-18" value="Security group" style="fillColor=none;strokeColor=#DD3522;verticalAlign=top;fontStyle=0;fontColor=#DD3522;whiteSpace=wrap;html=1;fontSize=9;" vertex="1" parent="XyRzEMEgcjJhNRbVPjNN-15">
          <mxGeometry x="10" y="41.25" width="95" height="87.5" as="geometry" />
        </mxCell>
        <mxCell id="XyRzEMEgcjJhNRbVPjNN-19" value="" style="sketch=0;outlineConnect=0;fontColor=#232F3E;gradientColor=none;fillColor=#ED7100;strokeColor=none;dashed=0;verticalLabelPosition=bottom;verticalAlign=top;align=center;html=1;fontSize=12;fontStyle=0;aspect=fixed;pointerEvents=1;shape=mxgraph.aws4.instance2;" vertex="1" parent="XyRzEMEgcjJhNRbVPjNN-15">
          <mxGeometry x="32.5" y="60" width="50" height="50" as="geometry" />
        </mxCell>
        <mxCell id="XyRzEMEgcjJhNRbVPjNN-20" value="" style="edgeStyle=elbowEdgeStyle;html=1;endArrow=openThin;startArrow=none;endFill=0;strokeColor=light-dark(#545B64,#000000);rounded=0;entryX=0.5;entryY=1;entryDx=0;entryDy=0;entryPerimeter=0;flowAnimation=1;" edge="1" parent="XyRzEMEgcjJhNRbVPjNN-3" source="XyRzEMEgcjJhNRbVPjNN-15">
          <mxGeometry width="100" relative="1" as="geometry">
            <mxPoint x="415" y="160" as="sourcePoint" />
            <mxPoint x="414.83" y="120" as="targetPoint" />
          </mxGeometry>
        </mxCell>
        <mxCell id="XyRzEMEgcjJhNRbVPjNN-21" value="Staging Area Subnet" style="points=[[0,0],[0.25,0],[0.5,0],[0.75,0],[1,0],[1,0.25],[1,0.5],[1,0.75],[1,1],[0.75,1],[0.5,1],[0.25,1],[0,1],[0,0.75],[0,0.5],[0,0.25]];outlineConnect=0;gradientColor=none;html=1;whiteSpace=wrap;fontSize=12;fontStyle=0;container=1;pointerEvents=0;collapsible=0;recursiveResize=0;shape=mxgraph.aws4.group;grIcon=mxgraph.aws4.group_security_group;grStroke=0;strokeColor=#00A4A6;fillColor=light-dark(#FFFFFF,#E6E6E6);verticalAlign=top;align=left;spacingLeft=30;fontColor=light-dark(#000000,#45A0D4);dashed=0;" vertex="1" parent="XyRzEMEgcjJhNRbVPjNN-3">
          <mxGeometry x="20" y="200" width="220" height="230" as="geometry" />
        </mxCell>
        <mxCell id="XyRzEMEgcjJhNRbVPjNN-22" value="Replication&lt;br&gt;Servers&lt;div&gt;&lt;br&gt;&lt;/div&gt;" style="sketch=0;outlineConnect=0;fontColor=light-dark(#232F3E,#000000);gradientColor=none;strokeColor=#ED7100;fillColor=light-dark(#FFFFFF,#E6E6E6);dashed=0;verticalLabelPosition=bottom;verticalAlign=top;align=center;html=1;fontSize=12;fontStyle=0;aspect=fixed;shape=mxgraph.aws4.resourceIcon;resIcon=mxgraph.aws4.instances;" vertex="1" parent="XyRzEMEgcjJhNRbVPjNN-21">
          <mxGeometry x="36" y="80" width="60" height="60" as="geometry" />
        </mxCell>
        <mxCell id="XyRzEMEgcjJhNRbVPjNN-23" value="" style="sketch=0;outlineConnect=0;fontColor=#232F3E;gradientColor=none;fillColor=#7AA116;strokeColor=none;dashed=0;verticalLabelPosition=bottom;verticalAlign=top;align=center;html=1;fontSize=12;fontStyle=0;aspect=fixed;pointerEvents=1;shape=mxgraph.aws4.volume;" vertex="1" parent="XyRzEMEgcjJhNRbVPjNN-3">
          <mxGeometry x="156.13" y="230" width="39.74" height="50" as="geometry" />
        </mxCell>
        <mxCell id="XyRzEMEgcjJhNRbVPjNN-24" value="" style="sketch=0;outlineConnect=0;fontColor=#232F3E;gradientColor=none;fillColor=#7AA116;strokeColor=none;dashed=0;verticalLabelPosition=bottom;verticalAlign=top;align=center;html=1;fontSize=12;fontStyle=0;aspect=fixed;pointerEvents=1;shape=mxgraph.aws4.volume;" vertex="1" parent="XyRzEMEgcjJhNRbVPjNN-3">
          <mxGeometry x="296.15999999999997" y="340.5" width="47.68" height="60" as="geometry" />
        </mxCell>
        <mxCell id="XyRzEMEgcjJhNRbVPjNN-25" value="" style="sketch=0;outlineConnect=0;fontColor=#232F3E;gradientColor=none;fillColor=#7AA116;strokeColor=none;dashed=0;verticalLabelPosition=bottom;verticalAlign=top;align=center;html=1;fontSize=10;fontStyle=0;aspect=fixed;pointerEvents=1;shape=mxgraph.aws4.volume;" vertex="1" parent="XyRzEMEgcjJhNRbVPjNN-3">
          <mxGeometry x="400" y="340.5" width="47.67" height="60" as="geometry" />
        </mxCell>
        <mxCell id="XyRzEMEgcjJhNRbVPjNN-26" style="edgeStyle=orthogonalEdgeStyle;rounded=0;orthogonalLoop=1;jettySize=auto;html=1;strokeColor=light-dark(#000000,#000000);flowAnimation=1;" edge="1" parent="XyRzEMEgcjJhNRbVPjNN-3" source="XyRzEMEgcjJhNRbVPjNN-28" target="XyRzEMEgcjJhNRbVPjNN-42">
          <mxGeometry relative="1" as="geometry" />
        </mxCell>
        <mxCell id="XyRzEMEgcjJhNRbVPjNN-27" style="edgeStyle=orthogonalEdgeStyle;rounded=0;orthogonalLoop=1;jettySize=auto;html=1;strokeColor=light-dark(#000000,#000000);flowAnimation=1;shadow=0;ignoreEdge=0;orthogonal=0;comic=0;enumerate=0;noJump=0;backgroundOutline=0;metaEdit=0;fixDash=0;snapToPoint=0;fillOpacity=100;arcSize=20;" edge="1" parent="XyRzEMEgcjJhNRbVPjNN-3" source="XyRzEMEgcjJhNRbVPjNN-28" target="XyRzEMEgcjJhNRbVPjNN-31">
          <mxGeometry relative="1" as="geometry" />
        </mxCell>
        <mxCell id="XyRzEMEgcjJhNRbVPjNN-28" value="" style="sketch=0;points=[[0,0,0],[0.25,0,0],[0.5,0,0],[0.75,0,0],[1,0,0],[0,1,0],[0.25,1,0],[0.5,1,0],[0.75,1,0],[1,1,0],[0,0.25,0],[0,0.5,0],[0,0.75,0],[1,0.25,0],[1,0.5,0],[1,0.75,0]];outlineConnect=0;fontColor=#232F3E;fillColor=#2E73B8;strokeColor=#ffffff;dashed=0;verticalLabelPosition=bottom;verticalAlign=top;align=center;html=1;fontSize=12;fontStyle=0;aspect=fixed;shape=mxgraph.aws4.resourceIcon;resIcon=mxgraph.aws4.database_migration_service;direction=east;" vertex="1" parent="XyRzEMEgcjJhNRbVPjNN-3">
          <mxGeometry x="80.13" y="575.5" width="78" height="78" as="geometry" />
        </mxCell>
        <mxCell id="XyRzEMEgcjJhNRbVPjNN-29" value="Security group" style="fillColor=none;strokeColor=#DD3522;verticalAlign=top;fontStyle=0;fontColor=#DD3522;whiteSpace=wrap;html=1;fontSize=9;" vertex="1" parent="XyRzEMEgcjJhNRbVPjNN-3">
          <mxGeometry x="294.5" y="564" width="150" height="126" as="geometry" />
        </mxCell>
        <mxCell id="XyRzEMEgcjJhNRbVPjNN-30" value="Amazon RDS&lt;div&gt;for MySQL DB instance&lt;/div&gt;" style="text;strokeColor=none;fillColor=none;html=1;fontSize=7;fontStyle=0;verticalAlign=middle;align=center;fontColor=light-dark(#000000,#000000);" vertex="1" parent="XyRzEMEgcjJhNRbVPjNN-3">
          <mxGeometry x="329" y="644.5" width="81" height="31" as="geometry" />
        </mxCell>
        <mxCell id="XyRzEMEgcjJhNRbVPjNN-31" value="" style="sketch=0;outlineConnect=0;fontColor=#232F3E;gradientColor=none;fillColor=#2E73B8;strokeColor=none;dashed=0;verticalLabelPosition=bottom;verticalAlign=top;align=center;html=1;fontSize=12;fontStyle=0;aspect=fixed;pointerEvents=1;shape=mxgraph.aws4.rds_mysql_instance;" vertex="1" parent="XyRzEMEgcjJhNRbVPjNN-3">
          <mxGeometry x="339" y="584" width="61" height="61" as="geometry" />
        </mxCell>
        <mxCell id="XyRzEMEgcjJhNRbVPjNN-32" value="&lt;span style=&quot;&quot;&gt;AWS DMS&lt;br&gt;(Replication Instance)&lt;/span&gt;" style="text;html=1;fontSize=15;fontStyle=0;verticalAlign=middle;align=center;fontColor=light-dark(#000000,#000000);" vertex="1" parent="XyRzEMEgcjJhNRbVPjNN-3">
          <mxGeometry x="75" y="653.5" width="88.26" height="36.5" as="geometry" />
        </mxCell>
        <mxCell id="XyRzEMEgcjJhNRbVPjNN-33" value="&lt;font&gt;KMS&lt;/font&gt;" style="sketch=0;points=[[0,0,0],[0.25,0,0],[0.5,0,0],[0.75,0,0],[1,0,0],[0,1,0],[0.25,1,0],[0.5,1,0],[0.75,1,0],[1,1,0],[0,0.25,0],[0,0.5,0],[0,0.75,0],[1,0.25,0],[1,0.5,0],[1,0.75,0]];outlineConnect=0;fontColor=light-dark(#000000,#000000);fillColor=#DD344C;strokeColor=#ffffff;dashed=0;verticalLabelPosition=bottom;verticalAlign=top;align=center;html=1;fontSize=9;fontStyle=0;aspect=fixed;shape=mxgraph.aws4.resourceIcon;resIcon=mxgraph.aws4.key_management_service;spacing=0;" vertex="1" parent="XyRzEMEgcjJhNRbVPjNN-3">
          <mxGeometry x="435" y="-50" width="30" height="30" as="geometry" />
        </mxCell>
        <mxCell id="XyRzEMEgcjJhNRbVPjNN-34" value="CloudWatch" style="sketch=0;points=[[0,0,0],[0.25,0,0],[0.5,0,0],[0.75,0,0],[1,0,0],[0,1,0],[0.25,1,0],[0.5,1,0],[0.75,1,0],[1,1,0],[0,0.25,0],[0,0.5,0],[0,0.75,0],[1,0.25,0],[1,0.5,0],[1,0.75,0]];points=[[0,0,0],[0.25,0,0],[0.5,0,0],[0.75,0,0],[1,0,0],[0,1,0],[0.25,1,0],[0.5,1,0],[0.75,1,0],[1,1,0],[0,0.25,0],[0,0.5,0],[0,0.75,0],[1,0.25,0],[1,0.5,0],[1,0.75,0]];outlineConnect=0;fontColor=light-dark(#000000,#000000);fillColor=#E7157B;strokeColor=#ffffff;dashed=0;verticalLabelPosition=bottom;verticalAlign=top;align=center;html=1;fontSize=9;fontStyle=0;aspect=fixed;shape=mxgraph.aws4.resourceIcon;resIcon=mxgraph.aws4.cloudwatch_2;spacing=0;" vertex="1" parent="XyRzEMEgcjJhNRbVPjNN-3">
          <mxGeometry x="395" y="-50" width="30" height="30" as="geometry" />
        </mxCell>
        <mxCell id="XyRzEMEgcjJhNRbVPjNN-35" style="edgeStyle=orthogonalEdgeStyle;rounded=0;orthogonalLoop=1;jettySize=auto;html=1;exitX=0.75;exitY=0;exitDx=0;exitDy=0;strokeColor=light-dark(#000000,#000000);flowAnimation=1;" edge="1" parent="XyRzEMEgcjJhNRbVPjNN-3" source="XyRzEMEgcjJhNRbVPjNN-37" target="XyRzEMEgcjJhNRbVPjNN-12">
          <mxGeometry relative="1" as="geometry">
            <Array as="points">
              <mxPoint x="204" y="138" />
              <mxPoint x="204" y="120" />
              <mxPoint x="320" y="120" />
            </Array>
          </mxGeometry>
        </mxCell>
        <mxCell id="XyRzEMEgcjJhNRbVPjNN-36" style="edgeStyle=orthogonalEdgeStyle;rounded=0;orthogonalLoop=1;jettySize=auto;html=1;strokeColor=light-dark(#000000,#000000);flowAnimation=1;" edge="1" parent="XyRzEMEgcjJhNRbVPjNN-3" source="XyRzEMEgcjJhNRbVPjNN-37" target="XyRzEMEgcjJhNRbVPjNN-10">
          <mxGeometry relative="1" as="geometry">
            <Array as="points">
              <mxPoint x="204" y="120" />
              <mxPoint x="204" y="120" />
            </Array>
          </mxGeometry>
        </mxCell>
        <mxCell id="XyRzEMEgcjJhNRbVPjNN-37" value="TCP&lt;br&gt;443" style="text;strokeColor=none;fillColor=none;html=1;fontSize=5;fontStyle=0;verticalAlign=middle;align=center;fontColor=light-dark(#000000,#000000);" vertex="1" parent="XyRzEMEgcjJhNRbVPjNN-3">
          <mxGeometry x="185" y="137.75" width="22" height="13.5" as="geometry" />
        </mxCell>
        <mxCell id="XyRzEMEgcjJhNRbVPjNN-38" value="" style="sketch=0;outlineConnect=0;fontColor=light-dark(#232F3E,#FF0000);gradientColor=none;strokeColor=light-dark(#0000FF,#FF0000);fillColor=light-dark(#FFFFFF,#FFFFFF);dashed=0;verticalLabelPosition=bottom;verticalAlign=top;align=center;html=1;fontSize=15;fontStyle=0;aspect=fixed;shape=mxgraph.aws4.resourceIcon;resIcon=mxgraph.aws4.encrypted_data;" vertex="1" parent="XyRzEMEgcjJhNRbVPjNN-3">
          <mxGeometry x="167" y="133.25" width="18" height="18" as="geometry" />
        </mxCell>
        <mxCell id="XyRzEMEgcjJhNRbVPjNN-39" value="HTTP" style="text;strokeColor=none;fillColor=none;html=1;fontSize=10;fontStyle=0;verticalAlign=middle;align=center;fontColor=light-dark(#000000,#000000);" vertex="1" parent="XyRzEMEgcjJhNRbVPjNN-3">
          <mxGeometry x="410.5" y="135.5" width="40" height="20" as="geometry" />
        </mxCell>
        <mxCell id="XyRzEMEgcjJhNRbVPjNN-40" style="edgeStyle=orthogonalEdgeStyle;rounded=0;orthogonalLoop=1;jettySize=auto;html=1;entryX=0.75;entryY=1;entryDx=0;entryDy=0;entryPerimeter=0;strokeColor=light-dark(#000000,#000000);flowAnimation=1;" edge="1" parent="XyRzEMEgcjJhNRbVPjNN-3" target="XyRzEMEgcjJhNRbVPjNN-8">
          <mxGeometry relative="1" as="geometry">
            <mxPoint x="210" y="120" as="sourcePoint" />
            <mxPoint x="77.5" y="109" as="targetPoint" />
            <Array as="points">
              <mxPoint x="88" y="120" />
            </Array>
          </mxGeometry>
        </mxCell>
        <mxCell id="XyRzEMEgcjJhNRbVPjNN-41" value="" style="edgeStyle=elbowEdgeStyle;elbow=horizontal;endArrow=classic;html=1;curved=0;rounded=0;endSize=8;startSize=8;strokeColor=light-dark(#000000,#000000);flowAnimation=1;" edge="1" parent="XyRzEMEgcjJhNRbVPjNN-3" source="XyRzEMEgcjJhNRbVPjNN-21" target="XyRzEMEgcjJhNRbVPjNN-38">
          <mxGeometry width="50" height="50" relative="1" as="geometry">
            <mxPoint x="160" y="220" as="sourcePoint" />
            <mxPoint x="210" y="170" as="targetPoint" />
          </mxGeometry>
        </mxCell>
        <mxCell id="XyRzEMEgcjJhNRbVPjNN-42" value="" style="sketch=0;points=[[0,0,0],[0.25,0,0],[0.5,0,0],[0.75,0,0],[1,0,0],[0,1,0],[0.25,1,0],[0.5,1,0],[0.75,1,0],[1,1,0],[0,0.25,0],[0,0.5,0],[0,0.75,0],[1,0.25,0],[1,0.5,0],[1,0.75,0]];outlineConnect=0;fontColor=#232F3E;fillColor=#7AA116;strokeColor=#ffffff;dashed=0;verticalLabelPosition=bottom;verticalAlign=top;align=center;html=1;fontSize=12;fontStyle=0;aspect=fixed;shape=mxgraph.aws4.resourceIcon;resIcon=mxgraph.aws4.s3;" vertex="1" parent="XyRzEMEgcjJhNRbVPjNN-3">
          <mxGeometry x="97.13" y="489.5" width="44" height="44" as="geometry" />
        </mxCell>
        <mxCell id="XyRzEMEgcjJhNRbVPjNN-43" value="" style="sketch=0;outlineConnect=0;fontColor=#232F3E;gradientColor=none;fillColor=#7AA116;strokeColor=none;dashed=0;verticalLabelPosition=bottom;verticalAlign=top;align=center;html=1;fontSize=12;fontStyle=0;aspect=fixed;pointerEvents=1;shape=mxgraph.aws4.volume;" vertex="1" parent="XyRzEMEgcjJhNRbVPjNN-3">
          <mxGeometry x="156.13" y="290.5" width="39.74" height="50" as="geometry" />
        </mxCell>
        <mxCell id="XyRzEMEgcjJhNRbVPjNN-44" value="" style="sketch=0;outlineConnect=0;fontColor=#232F3E;gradientColor=none;fillColor=#7AA116;strokeColor=none;dashed=0;verticalLabelPosition=bottom;verticalAlign=top;align=center;html=1;fontSize=12;fontStyle=0;aspect=fixed;pointerEvents=1;shape=mxgraph.aws4.volume;" vertex="1" parent="XyRzEMEgcjJhNRbVPjNN-3">
          <mxGeometry x="156.13" y="360" width="39.74" height="50" as="geometry" />
        </mxCell>
        <mxCell id="XyRzEMEgcjJhNRbVPjNN-45" value="Full Load +CDC" style="text;strokeColor=none;fillColor=none;html=1;fontSize=11;fontStyle=0;verticalAlign=middle;align=center;fontColor=light-dark(#000000,#B3B3B3);" vertex="1" parent="XyRzEMEgcjJhNRbVPjNN-3">
          <mxGeometry x="74.13" y="679.5" width="90" height="30.5" as="geometry" />
        </mxCell>
        <mxCell id="XyRzEMEgcjJhNRbVPjNN-46" value="On-Premise" style="points=[[0,0],[0.25,0],[0.5,0],[0.75,0],[1,0],[1,0.25],[1,0.5],[1,0.75],[1,1],[0.75,1],[0.5,1],[0.25,1],[0,1],[0,0.75],[0,0.5],[0,0.25]];outlineConnect=0;gradientColor=none;html=1;whiteSpace=wrap;fontSize=12;fontStyle=0;container=1;pointerEvents=0;collapsible=0;recursiveResize=0;shape=mxgraph.aws4.group;grIcon=mxgraph.aws4.group_corporate_data_center;strokeColor=#7D8998;fillColor=none;verticalAlign=top;align=left;spacingLeft=30;fontColor=light-dark(#000000,#000000);dashed=0;" vertex="1" parent="1">
          <mxGeometry x="10" y="-790" width="220" height="620" as="geometry" />
        </mxCell>
        <mxCell id="XyRzEMEgcjJhNRbVPjNN-47" value="" style="strokeColor=#666666;html=1;verticalLabelPosition=bottom;labelBackgroundColor=#ffffff;verticalAlign=top;outlineConnect=0;shadow=0;dashed=0;shape=mxgraph.rack.general.server_1;" vertex="1" parent="XyRzEMEgcjJhNRbVPjNN-46">
          <mxGeometry x="30" y="190" width="30" height="60" as="geometry" />
        </mxCell>
        <mxCell id="XyRzEMEgcjJhNRbVPjNN-48" value="" style="strokeColor=#666666;html=1;verticalLabelPosition=bottom;labelBackgroundColor=none;verticalAlign=top;outlineConnect=0;shadow=0;dashed=0;shape=mxgraph.rack.general.server_1;fillColor=default;" vertex="1" parent="XyRzEMEgcjJhNRbVPjNN-46">
          <mxGeometry x="30" y="60" width="30" height="60" as="geometry" />
        </mxCell>
        <mxCell id="XyRzEMEgcjJhNRbVPjNN-49" value="Frontend" style="text;strokeColor=none;fillColor=none;html=1;fontSize=11;fontStyle=0;verticalAlign=middle;align=center;fontColor=light-dark(#000000,#000000);" vertex="1" parent="XyRzEMEgcjJhNRbVPjNN-46">
          <mxGeometry x="22.5" y="120" width="45" height="40" as="geometry" />
        </mxCell>
        <mxCell id="XyRzEMEgcjJhNRbVPjNN-50" value="Backend" style="text;strokeColor=none;fillColor=none;html=1;fontSize=11;fontStyle=0;verticalAlign=middle;align=center;fontColor=light-dark(#000000,#000000);" vertex="1" parent="XyRzEMEgcjJhNRbVPjNN-46">
          <mxGeometry x="22.5" y="250" width="45" height="40" as="geometry" />
        </mxCell>
        <mxCell id="XyRzEMEgcjJhNRbVPjNN-51" value="" style="edgeStyle=orthogonalEdgeStyle;html=1;endArrow=openThin;elbow=vertical;startArrow=none;endFill=0;strokeColor=#FF00FF;rounded=0;flowAnimation=1;" edge="1" parent="XyRzEMEgcjJhNRbVPjNN-46">
          <mxGeometry width="100" relative="1" as="geometry">
            <mxPoint x="159" y="100" as="sourcePoint" />
            <mxPoint x="309" y="100" as="targetPoint" />
            <Array as="points">
              <mxPoint x="239" y="100" />
              <mxPoint x="239" y="100" />
            </Array>
          </mxGeometry>
        </mxCell>
        <mxCell id="XyRzEMEgcjJhNRbVPjNN-52" value="Replication&lt;br&gt;Agent" style="sketch=0;pointerEvents=1;shadow=0;dashed=0;html=1;strokeColor=none;fillColor=#505050;labelPosition=center;verticalLabelPosition=bottom;verticalAlign=top;outlineConnect=0;align=center;shape=mxgraph.office.servers.hybrid_server;fontColor=light-dark(#000000,#000000);" vertex="1" parent="XyRzEMEgcjJhNRbVPjNN-46">
          <mxGeometry x="100" y="64" width="59" height="52" as="geometry" />
        </mxCell>
        <mxCell id="XyRzEMEgcjJhNRbVPjNN-53" value="Replication&lt;br&gt;Agent" style="sketch=0;pointerEvents=1;shadow=0;dashed=0;html=1;strokeColor=none;fillColor=#505050;labelPosition=center;verticalLabelPosition=bottom;verticalAlign=top;outlineConnect=0;align=center;shape=mxgraph.office.servers.hybrid_server;fontColor=light-dark(#000000,#000000);" vertex="1" parent="XyRzEMEgcjJhNRbVPjNN-46">
          <mxGeometry x="100" y="194" width="59" height="52" as="geometry" />
        </mxCell>
        <mxCell id="XyRzEMEgcjJhNRbVPjNN-54" value="" style="edgeStyle=orthogonalEdgeStyle;html=1;endArrow=openThin;elbow=vertical;startArrow=none;endFill=0;strokeColor=#FF00FF;rounded=0;flowAnimation=1;" edge="1" parent="XyRzEMEgcjJhNRbVPjNN-46">
          <mxGeometry width="100" relative="1" as="geometry">
            <mxPoint x="159" y="236.57999999999993" as="sourcePoint" />
            <mxPoint x="309" y="236.57999999999993" as="targetPoint" />
            <Array as="points">
              <mxPoint x="179" y="236.57999999999993" />
              <mxPoint x="179" y="236.57999999999993" />
            </Array>
          </mxGeometry>
        </mxCell>
        <mxCell id="XyRzEMEgcjJhNRbVPjNN-55" value="" style="sketch=0;outlineConnect=0;fontColor=light-dark(#232F3E,#FFFFFF);gradientColor=none;fillColor=light-dark(#232F3D,#000000);strokeColor=none;dashed=0;verticalLabelPosition=bottom;verticalAlign=top;align=center;html=1;fontSize=12;fontStyle=0;aspect=fixed;pointerEvents=1;shape=mxgraph.aws4.generic_database;" vertex="1" parent="XyRzEMEgcjJhNRbVPjNN-46">
          <mxGeometry x="67.5" y="406" width="59" height="78" as="geometry" />
        </mxCell>
        <mxCell id="XyRzEMEgcjJhNRbVPjNN-56" value="MySQL DB" style="text;strokeColor=none;fillColor=none;html=1;fontSize=11;fontStyle=0;verticalAlign=middle;align=center;fontColor=light-dark(#000000,#000000);" vertex="1" parent="XyRzEMEgcjJhNRbVPjNN-46">
          <mxGeometry x="58.25" y="490" width="77.5" height="40" as="geometry" />
        </mxCell>
        <mxCell id="XyRzEMEgcjJhNRbVPjNN-57" value="TCP&lt;br&gt;1500" style="text;strokeColor=none;fillColor=none;html=1;fontSize=10;fontStyle=1;verticalAlign=middle;align=center;fontColor=light-dark(#000000,#000000);" vertex="1" parent="1">
          <mxGeometry x="199" y="-645" width="100" height="40" as="geometry" />
        </mxCell>
        <mxCell id="XyRzEMEgcjJhNRbVPjNN-58" value="" style="sketch=0;outlineConnect=0;fontColor=#232F3E;gradientColor=none;strokeColor=light-dark(#FF0000,#FF0000);fillColor=light-dark(#FFFFFF,#FFFFFF);dashed=0;verticalLabelPosition=bottom;verticalAlign=top;align=center;html=1;fontSize=12;fontStyle=0;aspect=fixed;shape=mxgraph.aws4.resourceIcon;resIcon=mxgraph.aws4.encrypted_data;" vertex="1" parent="1">
          <mxGeometry x="234" y="-710" width="30" height="30" as="geometry" />
        </mxCell>
        <mxCell id="XyRzEMEgcjJhNRbVPjNN-59" value="&lt;div&gt;&lt;br/&gt;&lt;/div&gt;" style="sketch=0;outlineConnect=0;fontColor=#232F3E;gradientColor=none;strokeColor=light-dark(#FF0000,#FF0000);fillColor=light-dark(#FFFFFF,#FFFFFF);dashed=0;verticalLabelPosition=bottom;verticalAlign=top;align=center;html=1;fontSize=12;fontStyle=0;aspect=fixed;shape=mxgraph.aws4.resourceIcon;resIcon=mxgraph.aws4.encrypted_data;" vertex="1" parent="1">
          <mxGeometry x="234" y="-569.5" width="30" height="30" as="geometry" />
        </mxCell>
        <mxCell id="XyRzEMEgcjJhNRbVPjNN-60" style="edgeStyle=orthogonalEdgeStyle;rounded=0;orthogonalLoop=1;jettySize=auto;html=1;strokeColor=light-dark(#ff00ff, #000000);flowAnimation=1;" edge="1" parent="1" source="XyRzEMEgcjJhNRbVPjNN-8" target="XyRzEMEgcjJhNRbVPjNN-46">
          <mxGeometry relative="1" as="geometry" />
        </mxCell>
        <mxCell id="XyRzEMEgcjJhNRbVPjNN-61" value="TCP 443" style="edgeLabel;html=1;align=center;verticalAlign=middle;resizable=0;points=[];fontSize=7;fontColor=light-dark(#000000,#000000);labelBackgroundColor=light-dark(#FFFFFF,#FFFFFF);" connectable="0" vertex="1" parent="XyRzEMEgcjJhNRbVPjNN-60">
          <mxGeometry x="0.253" y="2" relative="1" as="geometry">
            <mxPoint x="-2" y="-2" as="offset" />
          </mxGeometry>
        </mxCell>
        <mxCell id="XyRzEMEgcjJhNRbVPjNN-62" value="" style="sketch=0;outlineConnect=0;fontColor=#232F3E;gradientColor=none;strokeColor=light-dark(#FF0000,#FF0000);fillColor=light-dark(#FFFFFF,#FFFFFF);dashed=0;verticalLabelPosition=bottom;verticalAlign=top;align=center;html=1;fontSize=12;fontStyle=0;aspect=fixed;shape=mxgraph.aws4.resourceIcon;resIcon=mxgraph.aws4.encrypted_data;" vertex="1" parent="1">
          <mxGeometry x="105" y="-880" width="30" height="30" as="geometry" />
        </mxCell>
        <mxCell id="XyRzEMEgcjJhNRbVPjNN-63" value="VPN" style="outlineConnect=0;dashed=0;verticalLabelPosition=bottom;verticalAlign=top;align=center;html=1;shape=mxgraph.aws3.vpn_gateway;fontSize=9;fillColor=#fa6800;fontColor=#000000;strokeColor=#C73500;" vertex="1" parent="1">
          <mxGeometry x="234" y="-360" width="30" height="30" as="geometry" />
        </mxCell>
        <mxCell id="XyRzEMEgcjJhNRbVPjNN-64" value="" style="edgeStyle=elbowEdgeStyle;elbow=horizontal;endArrow=classic;html=1;curved=0;rounded=0;endSize=8;startSize=8;entryX=0;entryY=0.5;entryDx=0;entryDy=0;entryPerimeter=0;strokeColor=light-dark(#000000,#000000);flowAnimation=1;" edge="1" parent="1" source="XyRzEMEgcjJhNRbVPjNN-55" target="XyRzEMEgcjJhNRbVPjNN-63">
          <mxGeometry width="50" height="50" relative="1" as="geometry">
            <mxPoint x="300" y="-330" as="sourcePoint" />
            <mxPoint x="350" y="-380" as="targetPoint" />
          </mxGeometry>
        </mxCell>
        <mxCell id="XyRzEMEgcjJhNRbVPjNN-65" value="" style="edgeStyle=segmentEdgeStyle;endArrow=classic;html=1;curved=0;rounded=0;endSize=8;startSize=8;exitX=1;exitY=0.5;exitDx=0;exitDy=0;exitPerimeter=0;strokeColor=light-dark(#000000,#000000);flowAnimation=1;" edge="1" parent="1" source="XyRzEMEgcjJhNRbVPjNN-63" target="XyRzEMEgcjJhNRbVPjNN-28">
          <mxGeometry width="50" height="50" relative="1" as="geometry">
            <mxPoint x="300" y="-330" as="sourcePoint" />
            <mxPoint x="350" y="-380" as="targetPoint" />
          </mxGeometry>
        </mxCell>
        <mxCell id="XyRzEMEgcjJhNRbVPjNN-66" value="IAM" style="sketch=0;points=[[0,0,0],[0.25,0,0],[0.5,0,0],[0.75,0,0],[1,0,0],[0,1,0],[0.25,1,0],[0.5,1,0],[0.75,1,0],[1,1,0],[0,0.25,0],[0,0.5,0],[0,0.75,0],[1,0.25,0],[1,0.5,0],[1,0.75,0]];outlineConnect=0;fontColor=light-dark(#000000,#000000);fillColor=#DD344C;strokeColor=#ffffff;dashed=0;verticalLabelPosition=bottom;verticalAlign=top;align=center;html=1;fontSize=9;fontStyle=0;aspect=fixed;shape=mxgraph.aws4.resourceIcon;resIcon=mxgraph.aws4.identity_and_access_management;spacing=0;" vertex="1" parent="1">
          <mxGeometry x="630" y="-1010" width="30" height="30" as="geometry" />
        </mxCell>
        <mxCell id="XyRzEMEgcjJhNRbVPjNN-67" value="Full Load +CDC" style="text;strokeColor=none;fillColor=none;html=1;fontSize=11;fontStyle=0;verticalAlign=middle;align=center;fontColor=light-dark(#000000,#B3B3B3);" vertex="1" parent="1">
          <mxGeometry x="130" y="-640.25" width="90" height="30.5" as="geometry" />
        </mxCell>
      </root>
    </mxGraphModel>
  </diagram>
</mxfile>
